PathFileType	3	(X/Y/Z)	.\ExampleData\generated\LevelGround_ccw_fast_01.trc
DataRate	CameraRate	NumFrames	NumMarkers	Units	OrigDataRate	OrigDataStartFrame	OrigNumFrames
200.0	200.0	8	28	mm	200.0	744	5952	
Frame#	Time	L_ASIS	R_ASIS	L_PSIS	R_PSIS	R_Thigh_Upper	R_Knee_Lat	R_Thigh_Front	R_Thigh_Rear	L_Thigh_Upper	L_Thigh_Front	L_Thigh_Rear	L_Knee_Lat	L_Shank_Upper	L_Shank_Front	L_Shank_Rear	L_Ankle_Lat	R_Shank_Upper	R_Shank_Rear	R_Shank_Front	R_Ankle_Lat	R_Heel	R_Toe_Tip	R_Toe_Med	R_Toe_Lat	L_Heel	L_Toe_Tip	L_Toe_Med	L_Toe_Lat	
		X1	Y1	Z1	X2	Y2	Z2	X3	Y3	Z3	X4	Y4	Z4	X5	Y5	Z5	X6	Y6	Z6	X7	Y7	Z7	X8	Y8	Z8	X9	Y9	Z9	X10	Y10	Z10	X11	Y11	Z11	X12	Y12	Z12	X13	Y13	Z13	X14	Y14	Z14	X15	Y15	Z15	X16	Y16	Z16	X17	Y17	Z17	X18	Y18	Z18	X19	Y19	Z19	X20	Y20	Z20	X21	Y21	Z21	X22	Y22	Z22	X23	Y23	Z23	X24	Y24	Z24	X25	Y25	Z25	X26	Y26	Z26	X27	Y27	Z27	X28	Y28	Z28	
744	3.72	-648.66042	1011.8059	-901.52376	-528.65823	1019.845	-659.71945	-779.02569	1058.4851	-762.00112	-723.11794	1070.0458	-650.8456	-566.794	833.15511	-564.74391	-563.61935	510.79818	-588.75332	-511.22092	781.22691	-595.93308	-568.28248	765.30688	-559.87903	-751.50483	860.73546	-909.07385	-718.33672	788.58206	-924.55039	-783.6629	796.16041	-882.67976	-740.57443	489.48996	-869.47935	-815.2437	360.0824	-867.2966	-781.83073	303.27537	-867.97154	-824.07787	292.01565	-844.55861	-785.57617	69.596347	-832.82283	-605.22363	371.37047	-540.76921	-636.46562	310.82161	-548.37574	-576.76243	309.30582	-557.74899	-598.70523	68.748363	-578.43578	-668.6174	29.702622	-595.44908	-465.57242	50.231632	-669.96612	-474.01409	25.691991	-696.7934	-486.08083	24.427371	-577.85185	-822.35194	31.43661	-769.99463	-629.36504	44.344275	-873.71364	-612.60833	22.124907	-849.79761	-712.67179	15.516897	-918.11736
745	3.725	-648.65767	1011.8096	-901.51186	-528.65059	1019.8489	-659.70475	-779.03119	1058.4817	-761.98364	-723.11304	1070.0448	-650.8297	-566.78913	833.15527	-564.7324	-563.61346	510.79378	-588.74731	-511.21766	781.2237	-595.92181	-568.27693	765.3076	-559.87497	-751.50885	860.7361	-909.06614	-718.27753	788.59433	-924.62591	-783.66736	796.17971	-882.69463	-740.56422	489.49296	-869.47394	-815.23703	360.08677	-867.2954	-781.82709	303.27951	-867.96603	-824.07416	292.01584	-844.55917	-785.57581	69.597716	-832.82378	-605.21885	371.36883	-540.76799	-636.45998	310.81825	-548.37152	-576.7547	309.30705	-557.74429	-598.7072	68.744983	-578.43936	-668.61808	29.707467	-595.44565	-465.56911	50.232118	-669.96327	-474.0092	25.695236	-696.80102	-486.0803	24.432143	-577.84626	-822.34877	31.435015	-769.99835	-629.36528	44.344138	-873.7128	-612.60863	22.123656	-849.79719	-712.66859	15.52135	-918.12028
746	3.73	-648.65466	1011.8133	-901.49969	-528.64434	1019.8518	-659.68993	-779.03508	1058.4774	-761.96762	-723.10843	1070.0439	-650.81437	-566.78421	833.15523	-564.7208	-563.60749	510.78922	-588.74086	-511.21383	781.22057	-595.91	-568.27194	765.30834	-559.87071	-751.51235	860.73648	-909.05887	-718.2354	788.59807	-924.68592	-783.67109	796.19802	-882.7096	-740.55378	489.49527	-869.46845	-815.23005	360.09085	-867.29435	-781.82298	303.28268	-867.96096	-824.07065	292.01522	-844.56214	-785.57506	69.598871	-832.8249	-605.21403	371.36718	-540.76616	-636.45437	310.81489	-548.3671	-576.74709	309.30807	-557.73971	-598.70916	68.74176	-578.4428	-668.61853	29.711807	-595.44233	-465.56593	50.232445	-669.96025	-474.00597	25.697508	-696.80689	-486.07963	24.436753	-577.84044	-822.34679	31.434691	-770.0001	-629.36535	44.343779	-873.71156	-612.60872	22.122192	-849.79629	-712.66563	15.524477	-918.12243
747	3.735	-648.65139	1011.817	-901.48748	-528.63938	1019.8542	-659.67509	-779.03715	1058.4721	-761.95328	-723.10359	1070.0428	-650.79989	-566.77958	833.15498	-564.70935	-563.60149	510.78496	-588.73423	-511.21008	781.21713	-595.8975	-568.26788	765.30905	-559.86606	-751.51542	860.73653	-909.05201	-718.20937	788.59432	-924.73171	-783.67386	796.21459	-882.72382	-740.54348	489.4968	-869.46289	-815.22302	360.09446	-867.29335	-781.81878	303.28472	-867.95624	-824.06746	292.01381	-844.56701	-785.57402	69.599752	-832.82611	-605.20931	371.36576	-540.76375	-636.44896	310.8119	-548.36267	-576.73983	309.30903	-557.73535	-598.71107	68.738994	-578.44601	-668.6187	29.715522	-595.43924	-465.56314	50.232709	-669.9572	-474.00475	25.698642	-696.81061	-486.07886	24.440956	-577.83469	-822.34584	31.435282	-770.00001	-629.36532	44.343263	-873.71001	-612.60864	22.120693	-849.79502	-712.66315	15.526007	-918.12364
748	3.74	-648.64782	1011.8208	-901.47545	-528.63549	1019.8562	-659.66039	-779.03733	1058.4659	-761.94073	-723.098	1070.0415	-650.78658	-566.77537	833.15459	-564.69828	-563.59553	510.78146	-588.72772	-511.20698	781.21318	-595.88441	-568.26505	765.30964	-559.86093	-751.51818	860.73625	-909.04552	-718.19797	788.58448	-924.76496	-783.67549	796.22881	-882.73654	-740.5337	489.49756	-869.45734	-815.2162	360.09747	-867.29228	-781.81476	303.28562	-867.95185	-824.06464	292.01166	-844.57311	-785.57281	69.600346	-832.82729	-605.20479	371.3648	-540.76086	-636.44391	310.80959	-548.3584	-576.73317	309.31003	-557.73132	-598.71292	68.736891	-578.44901	-668.6185	29.718537	-595.43645	-465.56086	50.232994	-669.95421	-474.0057	25.69857	-696.81201	-486.07804	24.444595	-577.82929	-822.34569	31.43635	-769.99835	-629.36523	44.342684	-873.70823	-612.60845	22.119343	-849.79352	-712.66123	15.525771	-918.1239
749	3.745	-648.64378	1011.825	-901.46388	-528.63251	1019.858	-659.64597	-779.03569	1058.4591	-761.92991	-723.09118	1070.0395	-650.77475	-566.77164	833.15412	-564.68784	-563.58968	510.77903	-588.72163	-511.20487	781.20872	-595.87103	-568.26364	765.31005	-559.85524	-751.52081	860.73567	-909.03934	-718.19924	788.57009	-924.78753	-783.67583	796.24039	-882.74735	-740.52476	489.49763	-869.45178	-815.20982	360.09975	-867.29096	-781.81102	303.2855	-867.94779	-824.06212	292.00886	-844.57964	-785.57155	69.600696	-832.82834	-605.20055	371.36444	-540.75761	-636.43933	310.80821	-548.35447	-576.72732	309.31113	-557.7278	-598.71472	68.735551	-578.45183	-668.61791	29.720833	-595.43399	-465.55913	50.233368	-669.95138	-474.00876	25.697324	-696.81105	-486.07723	24.447514	-577.82456	-822.34605	31.437446	-769.99552	-629.36514	44.342147	-873.70635	-612.60823	22.118277	-849.79196	-712.65993	15.523675	-918.12324
750	3.75	-648.63899	1011.8295	-901.45303	-528.63036	1019.8599	-659.63199	-779.03243	1058.4519	-761.92068	-723.08273	1070.0367	-650.76471	-566.76837	833.15363	-564.67817	-563.58403	510.77786	-588.71617	-511.2038	781.20395	-595.85771	-568.26368	765.31017	-559.8489	-751.52349	860.73484	-909.03346	-718.21096	788.55275	-924.80127	-783.67489	796.24934	-882.75619	-740.5169	489.49722	-869.44621	-815.20403	360.10126	-867.28918	-781.80755	303.28457	-867.9441	-824.05974	292.00565	-844.58558	-785.57036	69.60088	-832.82913	-605.19658	371.36475	-540.75408	-636.4353	310.80791	-548.35099	-576.72241	309.31236	-557.72488	-598.71647	68.734974	-578.45444	-668.61694	29.722423	-595.4319	-465.55793	50.233876	-669.94889	-474.0136	25.695043	-696.80791	-486.07645	24.44952	-577.82084	-822.34665	31.438181	-769.99202	-629.36502	44.341753	-873.70444	-612.60804	22.117571	-849.7905	-712.6593	15.519668	-918.12172
751	3.755	-648.63317	1011.8346	-901.44307	-528.62897	1019.8618	-659.61854	-779.0278	1058.4448	-761.9128	-723.07234	1070.0327	-650.7567	-566.76549	833.1531	-564.66928	-563.5787	510.77798	-588.71145	-511.20366	781.19914	-595.84474	-568.26507	765.30992	-559.84178	-751.52646	860.73378	-909.02787	-718.23083	788.5339	-924.80782	-783.67281	796.25584	-882.76316	-740.51021	489.49658	-869.44062	-815.19898	360.10205	-867.28669	-781.80428	303.28318	-867.9408	-824.05724	292.00241	-844.58953	-785.56937	69.601002	-832.82956	-605.19289	371.36568	-540.75038	-636.43187	310.80869	-548.348	-576.71846	309.31371	-557.72254	-598.71815	68.735059	-578.45674	-668.61568	29.723353	-595.43019	-465.55723	50.234541	-669.94691	-474.01977	25.692006	-696.80284	-486.07576	24.450449	-577.81834	-822.34726	31.438266	-769.98832	-629.36488	44.34157	-873.70251	-612.60797	22.117261	-849.78927	-712.65922	15.513785	-918.11932
